<svg xmlns="http://www.w3.org/2000/svg" height="512" width="512.1986083984375" style=""><rect id="backgroundrect" width="100%" height="100%" x="0" y="0" fill="none" stroke="none"/><defs><linearGradient id="svg_4" x1="0.71875" y1="0.8515625" x2="1" y2="1"><stop stop-color="#207cca" stop-opacity="1" offset="0"/><stop stop-color="#df8335" stop-opacity="1" offset="1"/></linearGradient><linearGradient id="svg_9" x1="0.85546875" y1="0.88671875" x2="1" y2="1"><stop stop-color="#207cca" stop-opacity="1" offset="0"/><stop stop-color="#df8335" stop-opacity="1" offset="1"/></linearGradient><linearGradient id="svg_10" x1="0.83984375" y1="0.76953125" x2="1" y2="1"><stop stop-color="#207cca" stop-opacity="1" offset="0"/><stop stop-color="#df8335" stop-opacity="1" offset="1"/></linearGradient><linearGradient id="svg_11" x1="0.71875" y1="0.828125" x2="1" y2="1"><stop stop-color="#207cca" stop-opacity="1" offset="0"/><stop stop-color="#df8335" stop-opacity="1" offset="1"/></linearGradient><linearGradient id="svg_12" x1="0.71875" y1="0.828125" x2="1" y2="0.8984375"><stop stop-color="#207cca" stop-opacity="1" offset="0"/><stop stop-color="#df8335" stop-opacity="1" offset="1"/></linearGradient><linearGradient id="svg_13" x1="0.8046875" y1="0.8359375" x2="1" y2="1"><stop stop-color="#207cca" stop-opacity="1" offset="0"/><stop stop-color="#df8335" stop-opacity="1" offset="1"/></linearGradient><linearGradient id="svg_14" x1="0.83984375" y1="0.85546875" x2="1" y2="1"><stop stop-color="#207cca" stop-opacity="1" offset="0"/><stop stop-color="#df8335" stop-opacity="1" offset="1"/></linearGradient></defs><g class="currentLayer" style=""><title>Layer 1</title><path d="m2.160156 381.0625c5.710938 7.257812 14.402344 11.535156 23.636719 11.632812 9.238281-.097656 17.933594-4.375 23.648437-11.632812 2.464844-3.316406 6.355469-5.273438 10.492188-5.273438 4.132812 0 8.023438 1.957032 10.492188 5.273438 5.652343 7.328125 14.386718 11.617188 23.640624 11.617188 9.253907 0 17.984376-4.289063 23.640626-11.617188 2.464843-3.316406 6.359374-5.273438 10.492187-5.273438s8.023437 1.957032 10.492187 5.273438c5.65625 7.328125 14.386719 11.617188 23.640626 11.617188 9.253906 0 17.988281-4.289063 23.640624-11.617188 2.46875-3.316406 6.359376-5.273438 10.492188-5.273438 4.136719 0 8.027344 1.957032 10.492188 5.273438 5.65625 7.328125 14.386718 11.617188 23.640624 11.617188 9.257813 0 17.988282-4.289063 23.644532-11.617188 2.464844-3.316406 6.355468-5.273438 10.488281-5.273438 4.136719 0 8.027344 1.957032 10.492187 5.273438 5.65625 7.328125 14.386719 11.617188 23.644532 11.617188 9.253906 0 17.984375-4.289063 23.640625-11.617188 2.496093-3.300781 6.351562-5.296875 10.488281-5.433594 4.710938 0 8.53125-3.820312 8.53125-8.535156 0-4.710938-3.820312-8.53125-8.53125-8.53125-9.234375.09375-17.929688 4.371094-23.640625 11.628906-2.464844 3.316406-6.355469 5.269532-10.488281 5.269532-4.132813 0-8.023438-1.953126-10.492188-5.269532-5.65625-7.324218-14.386718-11.613281-23.644531-11.613281-9.253906 0-17.984375 4.289063-23.640625 11.613281-2.46875 3.316406-6.359375 5.269532-10.492188 5.269532-4.132812 0-8.023437-1.953126-10.492187-5.269532-5.652344-7.324218-14.386719-11.613281-23.640625-11.613281s-17.984375 4.289063-23.640625 11.613281c-2.46875 3.316406-6.359375 5.269532-10.492187 5.269532-4.132813 0-8.023438-1.953126-10.492188-5.269532-5.65625-7.324218-14.386719-11.613281-23.640625-11.613281s-17.988281 4.289063-23.640625 11.613281c-2.46875 3.316406-6.359375 5.269532-10.492188 5.269532-4.132812 0-8.023437-1.953126-10.492187-5.269532-5.714844-7.257812-14.410156-11.535156-23.644531-11.628906-9.234375.09375-17.929688 4.371094-23.640625 11.628906-2.46875 3.316406-6.359375 5.269532-10.496094 5.269532-4.132813 0-8.023437-1.953126-10.496094-5.269532-1.898437-2.476562-5.003906-3.714844-8.089843-3.234375-3.082032.484375-5.660157 2.613281-6.710938 5.554688-1.054688 2.941406-.4140625 6.21875 1.660156 8.550781zm0 0" id="svg_1" class="" fill="#207cca" fill-opacity="1" stroke="#6d6d6d" stroke-opacity="1"/><path d="m503.664062 298.828125c-9.230468.09375-17.925781 4.367187-23.636718 11.621094-2.46875 3.320312-6.359375 5.277343-10.496094 5.277343s-8.027344-1.957031-10.496094-5.277343c-5.65625-7.320313-14.382812-11.609375-23.636718-11.609375-9.253907 0-17.980469 4.289062-23.636719 11.609375-2.46875 3.320312-6.359375 5.277343-10.496094 5.277343s-8.027344-1.957031-10.496094-5.277343c-5.65625-7.320313-14.386719-11.609375-23.636719-11.609375-9.253906 0-17.984374 4.289062-23.636718 11.609375-2.46875 3.320312-6.363282 5.277343-10.496094 5.277343-4.136719 0-8.027344-1.957031-10.496094-5.277343-5.65625-7.320313-14.386718-11.609375-23.636718-11.609375-9.253907 0-17.984376 4.289062-23.640626 11.609375-2.46875 3.320312-6.359374 5.277343-10.496093 5.277343-4.132813 0-8.027344-1.957031-10.496094-5.277343-5.652344-7.320313-14.382813-11.609375-23.636719-11.609375-9.25 0-17.980468 4.289062-23.636718 11.609375-2.46875 3.320312-6.359376 5.277343-10.496094 5.277343-4.136719 0-8.027344-1.957031-10.496094-5.277343-3.015625-3.585938-8.363281-4.066407-11.972656-1.074219-3.609375 2.988281-4.132813 8.332031-1.167969 11.964844 5.65625 7.320312 14.386719 11.609375 23.636719 11.609375 9.253906 0 17.980468-4.289063 23.636718-11.609375 2.472657-3.316406 6.363282-5.269532 10.496094-5.269532 4.136719 0 8.027344 1.953126 10.496094 5.269532 5.65625 7.320312 14.386719 11.609375 23.636719 11.609375 9.253906 0 17.984375-4.289063 23.640625-11.609375 2.46875-3.316406 6.359375-5.269532 10.496094-5.269532 4.132812 0 8.023437 1.953126 10.492187 5.269532 5.65625 7.320312 14.386719 11.609375 23.640625 11.609375 9.25 0 17.980469-4.289063 23.636719-11.609375 2.46875-3.316406 6.359375-5.269532 10.496093-5.269532 4.132813 0 8.023438 1.953126 10.496094 5.269532 5.65625 7.320312 14.382813 11.609375 23.636719 11.609375 9.25 0 17.980469-4.289063 23.636719-11.609375 2.472656-3.316406 6.363281-5.269532 10.496094-5.269532 4.132812 0 8.027343 1.953126 10.496093 5.269532 5.65625 7.320312 14.386719 11.609375 23.636719 11.609375 9.253906 0 17.984375-4.289063 23.636719-11.609375 2.5-3.304688 6.355469-5.304688 10.496093-5.445313 4.714844 0 8.535157-3.820312 8.535157-8.53125 0-4.714843-3.820313-8.535156-8.535157-8.535156zm0 0" id="svg_2" class="" fill="#207cca" fill-opacity="1" stroke="#6d6d6d" stroke-opacity="1"/><path d="m503.664062 418.296875c-9.234374.09375-17.925781 4.371094-23.636718 11.628906-2.46875 3.320313-6.359375 5.273438-10.496094 5.273438s-8.027344-1.953125-10.496094-5.273438c-5.65625-7.320312-14.382812-11.609375-23.636718-11.609375-9.253907 0-17.980469 4.289063-23.636719 11.609375-2.46875 3.320313-6.359375 5.273438-10.496094 5.273438s-8.027344-1.953125-10.496094-5.273438c-5.65625-7.320312-14.386719-11.609375-23.636719-11.609375-9.253906 0-17.984374 4.289063-23.636718 11.609375-2.46875 3.320313-6.363282 5.273438-10.496094 5.273438-4.136719 0-8.027344-1.953125-10.496094-5.273438-5.65625-7.320312-14.386718-11.609375-23.636718-11.609375-9.253907 0-17.984376 4.289063-23.640626 11.609375-2.46875 3.320313-6.359374 5.273438-10.496093 5.273438-4.132813 0-8.027344-1.953125-10.496094-5.273438-5.652344-7.320312-14.382813-11.609375-23.636719-11.609375-9.25 0-17.980468 4.289063-23.636718 11.609375-2.46875 3.320313-6.359376 5.273438-10.496094 5.273438-4.136719 0-8.027344-1.953125-10.496094-5.273438-3.015625-3.585937-8.363281-4.066406-11.972656-1.078125-3.609375 2.992188-4.132813 8.335938-1.167969 11.96875 5.65625 7.320313 14.386719 11.609375 23.636719 11.609375 9.253906 0 17.980468-4.289062 23.636718-11.609375 2.46875-3.320312 6.363282-5.277344 10.496094-5.277344 4.136719 0 8.027344 1.957032 10.496094 5.277344 5.65625 7.320313 14.386719 11.609375 23.636719 11.609375 9.253906 0 17.984375-4.289062 23.640625-11.609375 2.464844-3.320312 6.359375-5.277344 10.496094-5.277344 4.132812 0 8.027343 1.957032 10.492187 5.277344 5.65625 7.320313 14.386719 11.609375 23.640625 11.609375 9.25 0 17.980469-4.289062 23.636719-11.609375 2.46875-3.320312 6.359375-5.277344 10.496093-5.277344 4.132813 0 8.027344 1.957032 10.496094 5.277344 5.65625 7.320313 14.382813 11.609375 23.636719 11.609375 9.25 0 17.980469-4.289062 23.636719-11.609375 2.46875-3.320312 6.359375-5.277344 10.496094-5.277344 4.136718 0 8.027343 1.957032 10.496093 5.277344 5.65625 7.320313 14.386719 11.609375 23.636719 11.609375 9.253906 0 17.984375-4.289062 23.636719-11.609375 2.5-3.308594 6.355469-5.3125 10.496093-5.453125 4.714844 0 8.535157-3.820312 8.535157-8.535156 0-4.710937-3.820313-8.53125-8.535157-8.53125zm0 0" id="svg_3" class="selected" fill="url(#svg_14)" fill-opacity="1" stroke="#6d6d6d" stroke-opacity="1"/><path d="m512.199219 94.027344c-.074219-42.371094-28.527344-79.4375-69.4375-90.464844-40.910157-11.03125-84.136719 6.71875-105.496094 43.3125-16.746094-28.910156-47.625-46.710938-81.03125-46.710938-33.410156 0-64.289063 17.800782-81.035156 46.710938-22.3125-38.460938-68.546875-55.992188-110.746094-41.988281-42.203125 14-68.792969 55.6875-63.691406 99.855469 5.097656 44.171874 40.488281 78.703124 84.769531 82.71875v34.566406h-76.800781c-4.710938 0-8.53125 3.820312-8.53125 8.535156 0 4.710938 3.820312 8.53125 8.53125 8.53125h76.800781v17.066406h-76.800781c-4.710938 0-8.53125 3.824219-8.53125 8.535156 0 4.710938 3.820312 8.535157 8.53125 8.535157h494.933593c4.714844 0 8.535157-3.824219 8.535157-8.535157 0-4.710937-3.820313-8.535156-8.535157-8.535156h-76.796874v-17.066406h76.796874c4.714844 0 8.535157-3.820312 8.535157-8.53125 0-4.714844-3.820313-8.535156-8.535157-8.535156h-76.796874v-34.566406c48.292968-4.449219 85.265624-44.929688 85.332031-93.433594zm-93.867188-76.796875c40.660157.125 74.175781 31.925781 76.4375 72.523437s-27.507812 75.925782-67.902343 80.570313v-28.800781l38.527343-23.113282c3.941407-2.46875 5.183594-7.644531 2.785157-11.632812-2.394532-3.984375-7.546876-5.320313-11.574219-2.996094l-29.738281 17.84375v-15.53125l31.632812-31.632812c2.214844-2.140626 3.105469-5.316407 2.324219-8.296876-.78125-2.984374-3.109375-5.316406-6.09375-6.09375-2.984375-.78125-6.15625.105469-8.296875 2.324219l-28.101563 28.101563-28.101562-28.101563c-2.140625-2.21875-5.3125-3.105469-8.296875-2.324219-2.984375.777344-5.3125 3.109376-6.09375 6.09375-.78125 2.980469.105468 6.15625 2.324218 8.296876l31.632813 31.632812v15.53125l-29.738281-17.84375c-4.03125-2.324219-9.179688-.988281-11.574219 2.996094-2.398437 3.988281-1.15625 9.164062 2.785156 11.632812l38.527344 23.113282v28.777343c-28.972656-3.195312-53.613281-22.570312-63.554687-49.972656 5.097656-17.164063 5.097656-35.4375 0-52.597656 10.992187-30.339844 39.820312-50.535157 72.089843-50.5zm-162.132812 0c40.660156.125 74.175781 31.925781 76.4375 72.523437s-27.511719 75.925782-67.90625 80.570313v-28.800781l38.53125-23.113282c3.941406-2.46875 5.183593-7.644531 2.785156-11.632812-2.394531-3.984375-7.546875-5.320313-11.578125-2.996094l-29.738281 17.84375v-15.53125l31.632812-31.632812c2.21875-2.140626 3.109375-5.316407 2.328125-8.296876-.78125-2.984374-3.109375-5.316406-6.09375-6.09375-2.984375-.78125-6.15625.105469-8.296875 2.324219l-28.101562 28.101563-28.101563-28.101563c-2.140625-2.21875-5.316406-3.105469-8.296875-2.324219-2.984375.777344-5.316406 3.109376-6.09375 6.09375-.78125 2.980469.105469 6.15625 2.324219 8.296876l31.632812 31.632812v15.53125l-29.738281-17.84375c-4.03125-2.324219-9.179687-.988281-11.574219 2.996094-2.398437 3.988281-1.160156 9.164062 2.785157 11.632812l38.527343 23.113282v28.800781c-40.394531-4.644531-70.167968-39.972657-67.902343-80.570313 2.261719-40.597656 35.777343-72.398437 76.4375-72.523437zm-238.933594 76.796875c.089844-37.191406 26.8125-68.976563 63.441406-75.445313 36.625-6.46875 72.621094 14.234375 85.449219 49.148438-5.097656 17.160156-5.097656 35.433593 0 52.597656-9.941406 27.402344-34.585938 46.777344-63.558594 49.972656v-28.777343l38.527344-23.113282c2.675781-1.542968 4.308594-4.40625 4.273438-7.492187-.039063-3.085938-1.734376-5.910157-4.441407-7.390625-2.707031-1.480469-6.003906-1.382813-8.621093.253906l-29.738282 17.84375v-15.53125l31.632813-31.632812c2.21875-2.140626 3.109375-5.316407 2.328125-8.296876-.78125-2.984374-3.109375-5.316406-6.09375-6.09375-2.984375-.78125-6.15625.105469-8.300782 2.324219l-28.097656 28.101563-28.101562-28.101563c-2.140625-2.21875-5.316406-3.105469-8.296875-2.324219-2.984375.777344-5.316407 3.109376-6.097657 6.09375-.78125 2.980469.109376 6.15625 2.328126 8.296876l31.632812 31.632812v15.53125l-29.738281-17.84375c-2.613281-1.636719-5.910157-1.734375-8.617188-.253906-2.707031 1.480468-4.40625 4.304687-4.441406 7.390625-.035156 3.085937 1.597656 5.949219 4.269531 7.492187l38.527344 23.113282v28.800781c-38.839844-4.382813-68.210938-37.210938-68.265625-76.296875zm85.332031 93.449218c30.261719-2.734374 57.308594-19.996093 72.535156-46.292968 15.269532 26.25 42.292969 43.492187 72.53125 46.277344v34.566406h-145.066406zm0 68.683594v-17.066406h145.066406v17.066406zm307.199219 0h-145.066406v-17.066406h145.066406zm-145.066406-34.132812v-34.566406c30.242187-2.785157 57.265625-20.027344 72.535156-46.277344 15.222656 26.296875 42.273437 43.558594 72.53125 46.292968v34.550782zm0 0" id="svg_5" class="" fill="#207cca" fill-opacity="1" stroke="#6d6d6d" stroke-opacity="1"/><path d="m50.21269381046295,320.5646501895371 c2.4648440000000003,-3.320313 6.359375,-5.273438 10.496094,-5.273438 c4.132812,0 8.027344,1.953125 10.496094,5.273438 c5.652343,7.320312 14.382812,11.609375 23.636718000000002,11.609375 c9.25,0 17.980469,-4.289063 23.636719,-11.609375 c1.972656,-2.34375 2.5351559999999997,-5.566406 1.476563,-8.441406 c-1.058594,-2.875 -3.578126,-4.9609380000000005 -6.597657,-5.46875 c-3.023437,-0.503907 -6.082031,0.648437 -8.019531,3.019531 c-2.46875,3.320312 -6.363281,5.277343 -10.496094,5.277343 c-4.136718,0 -8.027344,-1.9570310000000002 -10.496094,-5.277343 c-5.710937,-7.253907 -14.40625,-11.527344 -23.636718000000002,-11.621094 c-9.234375,0.09375000000000003 -17.925782,4.367187 -23.640625,11.621094 c-2.4648440000000003,3.320312 -6.359375,5.277343 -10.496094,5.277343 c-4.132813,0 -8.027344,-1.9570310000000002 -10.496094,-5.277343 c-1.9335930000000001,-2.3710940000000003 -4.996093,-3.523438 -8.019531,-3.019531 c-3.019531,0.5078119999999999 -5.5390619999999995,2.59375 -6.597656,5.46875 s-0.49609400000000003,6.097656 1.476562,8.441406 c5.7109380000000005,7.253906 14.40625,11.527344 23.636719,11.621094 c9.234375,-0.09375000000000003 17.925781,-4.3671880000000005 23.640625,-11.621094 zm0,0 " id="svg_6" class="" fill="#207cca" fill-opacity="1" stroke="#6d6d6d" stroke-opacity="1"/><path d="m2.160156 440.796875c5.710938 7.257813 14.402344 11.535156 23.636719 11.632813 9.238281-.101563 17.933594-4.375 23.648437-11.632813 2.464844-3.316406 6.355469-5.273437 10.492188-5.273437 4.132812 0 8.023438 1.957031 10.492188 5.273437 5.652343 7.324219 14.382812 11.609375 23.636718 11.609375 9.25 0 17.980469-4.285156 23.636719-11.609375 2.039063-2.335937 2.652344-5.597656 1.597656-8.511719-1.054687-2.917968-3.609375-5.035156-6.671875-5.527344-3.0625-.492187-6.152344.71875-8.066406 3.160157-2.46875 3.316406-6.359375 5.269531-10.492188 5.269531-4.132812 0-8.023437-1.953125-10.492187-5.269531-5.714844-7.253907-14.410156-11.527344-23.644531-11.621094-9.234375.09375-17.929688 4.371094-23.640625 11.628906-2.46875 3.316407-6.359375 5.269531-10.496094 5.269531-4.132813 0-8.023437-1.953124-10.496094-5.269531-1.898437-2.476562-5.003906-3.71875-8.089843-3.234375-3.082032.484375-5.660157 2.613282-6.710938 5.554688-1.054688 2.9375-.4140625 6.21875 1.660156 8.550781zm0 0" id="svg_7" class="" fill="#207cca" fill-opacity="1" stroke="#6d6d6d" stroke-opacity="1"/><path d="m441.96875 381.074219c2.46875-3.320313 6.359375-5.273438 10.496094-5.273438 4.136718 0 8.027344 1.953125 10.496094 5.273438 5.65625 7.320312 14.386718 11.609375 23.636718 11.609375 9.253906 0 17.984375-4.289063 23.636719-11.609375 2.964844-3.632813 2.445313-8.976563-1.164063-11.96875-3.609374-2.988281-8.957031-2.507813-11.976562 1.078125-2.46875 3.320312-6.359375 5.273437-10.496094 5.273437-4.132812 0-8.027344-1.953125-10.496094-5.273437-5.65625-7.320313-14.382812-11.609375-23.636718-11.609375-9.25 0-17.980469 4.289062-23.636719 11.609375-2.46875 3.320312-6.359375 5.273437-10.496094 5.273437s-8.027343-1.953125-10.496093-5.273437c-1.9375-2.375-5-3.527344-8.019532-3.019532-3.023437.503907-5.542968 2.59375-6.601562 5.46875s-.492188 6.09375 1.480468 8.441407c5.65625 7.320312 14.382813 11.609375 23.636719 11.609375 9.253907 0 17.980469-4.289063 23.636719-11.609375zm0 0" id="svg_8" class="" fill="url(#svg_13)" fill-opacity="1" stroke="#6d6d6d" stroke-opacity="1"/></g></svg>